{"title":"Men Behind the Sun aka Hei tai yang 731 - 1988","uid":8664222,"size":1612472574,"categoryP":"video","categoryS":"movies","magnet":"?xt=urn:btih:fc189f79dc90ce31642612045dae27206501a8f5&amp;dn=Men+Behind+the+Sun+aka+Hei+tai+yang+731+-+1988&amp;tr=udp%3A%2F%2Ftracker.openbittorrent.com%3A80&amp;tr=udp%3A%2F%2Fopen.demonii.com%3A1337&amp;tr=udp%3A%2F%2Ftracker.coppersurfer.tk%3A6969&amp;tr=udp%3A%2F%2Fexodus.desync.com%3A6969","seeders":14,"leechers":0,"uploader":"cavallone","files":1,"time":1373379135,"description":"Plot Summary:  Man Behind the Sun made history back in 1988, when it became the first movie to ever receive China's equivalent to an NC-17 rating (rating: III). Mou Tun-fei's intention was to make an anti-war film that would educate people to the heinous crimes committed by Japan's Unit 731 on its prisoners during World War II, but the censors deemed Man Behind the Sun more of an heartless exploitation flick than an informative tool.\n\nPrisoners, of both Chinese and Soviet descent, are hung up on crosses, run over by trucks, and shot in cold blood, and Tun-fei never pulls his camera way from any of the gruesome atrocities. Battlefield veterans might not appreciate its graphic nature, but we're sure as hell convinced that WWII was hell on Earth.\n\n\nRip specs:\n\n\nFormat                                   : Matroska\nFormat version                           : Version 2\nFile size                                : 1.50 GiB\nDuration                                 : 1h 44mn\nOverall bit rate                         : 2 048 Kbps\nWriting application                      : HandBrake 0.9.9\nWriting library                          : libmkv 0.6.5\n\nVideo\nID                                       : 1\nFormat                                   : AVC\nFormat/Info                              : Advanced Video Codec\nFormat profile                           : &lt;a class=&quot;__cf_email__&quot; href=&quot;/cdn-cgi/l/email-protection&quot; data-cfemail=&quot;8dc5e4eae5cdc1bea3bd&quot;&gt;[email&amp;#160;protected]&lt;/a&gt;&lt;script cf-hash='f9e31' type=&quot;text/javascript&quot;&gt;\n/* &lt;![CDATA[ */!function(){try{var t=&quot;currentScript&quot;in document?document.currentScript:function(){for(var t=document.getElementsByTagName(&quot;script&quot;),e=t.length;e--;)if(t[e].getAttribute(&quot;cf-hash&quot;))return t[e]}();if(t&amp;&amp;t.previousSibling){var e,r,n,i,c=t.previousSibling,a=c.getAttribute(&quot;data-cfemail&quot;);if(a){for(e=&quot;&quot;,r=parseInt(a.substr(0,2),16),n=2;a.length-n;n+=2)i=parseInt(a.substr(n,2),16)^r,e+=String.fromCharCode(i);e=document.createTextNode(e),c.parentNode.replaceChild(e,c)}}}catch(u){}}();/* ]]&gt; */&lt;/script&gt;\nFormat settings, CABAC                   : Yes\nFormat settings, ReFrames                : 6 frames\nCodec ID                                 : V_MPEG4/ISO/AVC\nDuration                                 : 1h 44mn\nBit rate                                 : 1 850 Kbps\nWidth                                    : 700 pixels\nHeight                                   : 358 pixels\nDisplay aspect ratio                     : 1.737\nOriginal display aspect ratio            : 1.738\nFrame rate mode                          : Constant\nFrame rate                               : 23.976 fps\nColor space                              : YUV\nChroma subsampling                       : 4:2:0\nBit depth                                : 8 bits\nScan type                                : Progressive\nBits/(Pixel*Frame)                       : 0.308\nStream size                              : 1.33 GiB (89%)\nWriting library                          : x264 core 130 r2273 b3065e6\nEncoding settings                        : cabac=1 / ref=6 / deblock=1:0:0 / analyse=0x3:0x133 / me=umh / subme=7 / psy=1 / psy_rd=1.00:0.00 / mixed_ref=1 / me_range=16 / chroma_me=1 / trellis=2 / 8x8dct=1 / cqm=0 / deadzone=21,11 / fast_pskip=1 / chroma_qp_offset=-2 / threads=18 / lookahead_threads=2 / sliced_threads=0 / nr=0 / decimate=1 / interlaced=0 / bluray_compat=0 / constrained_intra=0 / bframes=5 / b_pyramid=2 / b_adapt=2 / b_bias=0 / direct=1 / weightb=1 / open_gop=0 / weightp=2 / keyint=240 / keyint_min=24 / scenecut=40 / intra_refresh=0 / rc_lookahead=50 / rc=2pass / mbtree=1 / bitrate=1850 / ratetol=1.0 / qcomp=0.60 / qpmin=0 / qpmax=69 / qpstep=4 / cplxblur=20.0 / qblur=0.5 / ip_ratio=1.40 / aq=1:1.00\nLanguage                                 : English\nDefault                                  : Yes\nForced                                   : No\nColor primaries                          : BT.601 NTSC\nTransfer characteristics                 : BT.709\nMatrix coefficients                      : BT.601\n\nAudio\nID                                       : 2\nFormat                                   : AC-3\nFormat/Info                              : Audio Coding 3\nMode extension                           : CM (complete main)\nFormat settings, Endianness              : Big\nCodec ID                                 : A_AC3\nDuration                                 : 1h 44mn\nBit rate mode                            : Constant\nBit rate                                 : 192 Kbps\nChannel(s)                               : 2 channels\nChannel positions                        : Front: L R\nSampling rate                            : 48.0 KHz\nBit depth                                : 16 bits\nCompression mode                         : Lossy\nStream size                              : 144 MiB (9%)\nLanguage                                 : Chinese\nDefault                                  : Yes\nForced                                   : No\n\nText\nID                                       : 3\nFormat                                   : VobSub\nCodec ID                                 : S_VOBSUB\nCodec ID/Info                            : The same subtitle format used on DVDs\nLanguage                                 : English\nDefault                                  : No\nForced                                   : No\n\nMenu\n00:00:00.000                             : Chapter 1\n00:10:05.980                             : Chapter 2\n00:20:18.467                             : Chapter 3\n00:30:20.109                             : Chapter 4\n00:40:02.233                             : Chapter 5\n00:55:27.407                             : Chapter 6\n01:10:29.683                             : Chapter 7\n01:25:31.918                             : Chapter 8\n01:40:32.401                             : Chapter 9\n\n\n","torrent":{"xt":"urn:btih:fc189f79dc90ce31642612045dae27206501a8f5","amp;dn":"Men+Behind+the+Sun+aka+Hei+tai+yang+731+-+1988","amp;tr":["udp%3A%2F%2Ftracker.openbittorrent.com%3A80","udp%3A%2F%2Fopen.demonii.com%3A1337","udp%3A%2F%2Ftracker.coppersurfer.tk%3A6969","udp%3A%2F%2Fexodus.desync.com%3A6969"],"infoHash":"fc189f79dc90ce31642612045dae27206501a8f5","infoHashBuffer":{"type":"Buffer","data":[252,24,159,121,220,144,206,49,100,38,18,4,93,174,39,32,101,1,168,245]},"announce":[],"urlList":[]}}